<svg xmlns="http://www.w3.org/2000/svg" viewBox="0 0 1440 320" preserveAspectRatio="none"><path fill="#fff" fill-opacity="1" d="M0,64L24,96C48,128,96,192,144,229.3C192,267,240,277,288,277.3C336,277,384,267,432,256C480,245,528,235,576,245.3C624,256,672,288,720,261.3C768,235,816,149,864,138.7C912,128,960,192,1008,218.7C1056,245,1104,235,1152,202.7C1200,171,1248,117,1296,128C1344,139,1392,213,1416,250.7L1440,288L1440,320L1416,320C1392,320,1344,320,1296,320C1248,320,1200,320,1152,320C1104,320,1056,320,1008,320C960,320,912,320,864,320C816,320,768,320,720,320C672,320,624,320,576,320C528,320,480,320,432,320C384,320,336,320,288,320C240,320,192,320,144,320C96,320,48,320,24,320L0,320Z"></path></svg>